<svg class="fl-photo-img wp-image-38586 size-full style-svg replaced-svg svg-replaced-0" id="svg-replaced-0" viewBox="0 0 135.297 141.837" height="141.837" width="135.297" xmlns="http://www.w3.org/2000/svg">
  <g transform="translate(-814.307 -490.331)" data-name="Group 3784" id="Group_3784">
    
    <g transform="translate(898.088 549.313)" data-name="Group 3766" id="Group_3766">
      <path fill="#fff" transform="translate(-917.106 -562.702)" d="M950.761,563.925H917.717a.611.611,0,1,1,0-1.223h33.043a.611.611,0,0,1,0,1.223Z" data-name="Path 4813" id="Path_4813"></path>
    </g>
    <g transform="translate(898.088 536.645)" data-name="Group 3767" id="Group_3767">
      <path fill="#fff" transform="translate(-917.106 -547.158)" d="M917.717,561.049a.611.611,0,0,1-.006-1.223c11.565-.12,23.024-12.35,23.137-12.474a.612.612,0,0,1,.9.831c-.482.52-11.928,12.739-24.023,12.865Z" data-name="Path 4814" id="Path_4814"></path>
    </g>
    <g transform="translate(898.088 549.313)" data-name="Group 3768" id="Group_3768">
      <path fill="#fff" transform="translate(-917.106 -562.702)" d="M941.3,576.594a.614.614,0,0,1-.449-.2c-.113-.124-11.572-12.353-23.137-12.474a.613.613,0,0,1-.606-.618.587.587,0,0,1,.618-.6c12.1.126,23.541,12.346,24.023,12.866a.611.611,0,0,1-.449,1.027Z" data-name="Path 4815" id="Path_4815"></path>
    </g>
    <g transform="translate(923.996 544.07)" data-name="Group 3769" id="Group_3769">
      <path fill="#fff" transform="translate(-948.895 -556.268)" d="M953.359,567.979a.61.61,0,0,1-.493-.25l-3.853-5.245a.611.611,0,0,1,0-.724l3.853-5.244a.612.612,0,0,1,.985.725l-3.587,4.881L953.851,567a.613.613,0,0,1-.131.855A.6.6,0,0,1,953.359,567.979Z" data-name="Path 4816" id="Path_4816"></path>
    </g>
    <g transform="translate(917.816 544.07)" data-name="Group 3770" id="Group_3770">
      <path fill="#fff" transform="translate(-941.312 -556.268)" d="M945.776,567.979a.611.611,0,0,1-.493-.249l-3.853-5.245a.612.612,0,0,1,0-.724l3.853-5.244a.612.612,0,0,1,.985.725l-3.588,4.881L946.269,567a.612.612,0,0,1-.131.855A.6.6,0,0,1,945.776,567.979Z" data-name="Path 4817" id="Path_4817"></path>
    </g>
    <g transform="translate(916.362 556.576)" data-name="Group 3771" id="Group_3771">
      <path fill="#fff" transform="translate(-939.527 -571.613)" d="M940.139,578.59a.55.55,0,0,1-.063,0,.611.611,0,0,1-.546-.67l.491-4.79a.609.609,0,0,1,.486-.536l4.716-.965a.611.611,0,0,1,.245,1.2l-4.276.875-.445,4.343A.61.61,0,0,1,940.139,578.59Z" data-name="Path 4818" id="Path_4818"></path>
    </g>
    <g transform="translate(912.006 553.474)" data-name="Group 3772" id="Group_3772">
      <path fill="#fff" transform="translate(-934.183 -567.807)" d="M934.8,574.784a.556.556,0,0,1-.064,0,.612.612,0,0,1-.546-.67l.491-4.79a.61.61,0,0,1,.486-.536l4.716-.965a.611.611,0,1,1,.245,1.2l-4.276.875-.445,4.343A.611.611,0,0,1,934.8,574.784Z" data-name="Path 4819" id="Path_4819"></path>
    </g>
    <g transform="translate(915.815 536.644)" data-name="Group 3773" id="Group_3773">
      <path fill="#fff" transform="translate(-938.857 -547.156)" d="M945.222,553.586a.542.542,0,0,1-.063,0l-4.79-.49a.609.609,0,0,1-.536-.485l-.964-4.717a.611.611,0,1,1,1.2-.245l.874,4.277,4.343.444a.611.611,0,0,1-.061,1.219Z" data-name="Path 4820" id="Path_4820"></path>
    </g>
    <g transform="translate(911.733 539.616)" data-name="Group 3774" id="Group_3774">
      <path fill="#fff" transform="translate(-933.848 -550.804)" d="M940.214,557.233a.541.541,0,0,1-.063,0l-4.79-.49a.61.61,0,0,1-.536-.486l-.965-4.716a.611.611,0,1,1,1.2-.245l.875,4.276,4.343.445a.611.611,0,0,1-.061,1.219Z" data-name="Path 4821" id="Path_4821"></path>
    </g>
    <g transform="translate(892.355 539.067)" data-name="Group 3775" id="Group_3775">
      <path fill="#fff" transform="translate(-910.071 -550.13)" d="M910.682,572.894a.612.612,0,0,1-.075-1.218c8.319-1.043,8.315-4.723,8.307-9.817v-.568c0-5.2,0-8.953-7.181-9.944a.611.611,0,0,1,.167-1.211c8.237,1.136,8.237,6,8.236,11.155v.566c.007,5.067.013,9.853-9.377,11.032A.611.611,0,0,1,910.682,572.894Z" data-name="Path 4822" id="Path_4822"></path>
    </g>
    <g transform="translate(839.521 544.546)" data-name="Group 3776" id="Group_3776">
      <path fill="#fff" transform="translate(-845.245 -556.853)" d="M879.594,572.625a.59.59,0,0,1-.124-.013c-15.215-3.123-33.625-9.3-33.809-9.361a.612.612,0,0,1-.015-1.154c.077-.028,7.813-2.836,16.1-5.22a.611.611,0,1,1,.337,1.174c-5.951,1.712-11.62,3.645-14.339,4.6,4.9,1.593,19.517,6.21,31.971,8.766a.611.611,0,0,1-.121,1.209Z" data-name="Path 4823" id="Path_4823"></path>
    </g>
    <g transform="translate(853.745 523.778)" data-name="Group 3783" id="Group_3783">
      <g transform="translate(1.203 30.724)" data-name="Group 3777" id="Group_3777">
        <path fill="#fff" transform="translate(-864.173 -569.068)" d="M870.8,618.552h0a.612.612,0,0,1-.606-.616c0-.276.219-27.637,0-30.918-.112-1.663-1.888-5.416-4.875-10.3a7.76,7.76,0,0,1-1.141-4.055v-2.989a.611.611,0,0,1,1.223,0v2.989a6.537,6.537,0,0,0,.962,3.417c1.813,2.963,4.883,8.313,5.051,10.852.221,3.327.01,29.88,0,31.009A.612.612,0,0,1,870.8,618.552Z" data-name="Path 4824" id="Path_4824"></path>
      </g>
      <g transform="translate(14.657 12.012)" data-name="Group 3778" id="Group_3778">
        <path fill="#fff" transform="translate(-880.681 -546.108)" d="M895.66,614.131a.612.612,0,0,1-.611-.611V581.777a.612.612,0,0,1,.258-.5c.1-.068,9.739-6.963,11.228-13.668,1.017-4.575.06-12.52-.6-16.849a4.025,4.025,0,0,0-4.344-3.413l-9.391.837a1.4,1.4,0,0,0-.944,2.288l1.022,1.214a1.28,1.28,0,0,0,1.1.5l8.057-.2a.612.612,0,0,1,.518.96c-.044.064-4.47,6.52-4.793,13.6a.606.606,0,0,1-.215.438.628.628,0,0,1-.468.141c-.435-.052-10.592-1.109-14.606,10.728a.611.611,0,0,1-1.157-.394c2.262-6.671,6.459-9.459,9.581-10.623a15.4,15.4,0,0,1,5.682-.967,30.376,30.376,0,0,1,4.34-12.634l-6.908.171a2.606,2.606,0,0,1-2.068-.933l-1.022-1.214a2.618,2.618,0,0,1,1.772-4.292l9.39-.837a5.269,5.269,0,0,1,5.66,4.447c.824,5.391,1.594,12.769.587,17.3-1.469,6.606-9.837,13.023-11.457,14.213v31.43A.611.611,0,0,1,895.66,614.131Z" data-name="Path 4825" id="Path_4825"></path>
      </g>
      <g transform="translate(0 4.339)" data-name="Group 3779" id="Group_3779">
        <path fill="#fff" transform="translate(-862.697 -536.694)" d="M866.365,554.6a3.671,3.671,0,0,1-3.667-3.667V540.361a3.667,3.667,0,1,1,7.334,0v10.571A3.671,3.671,0,0,1,866.365,554.6Zm0-16.683a2.448,2.448,0,0,0-2.445,2.445v10.571a2.445,2.445,0,0,0,4.889,0V540.361A2.447,2.447,0,0,0,866.365,537.917Z" data-name="Path 4826" id="Path_4826"></path>
      </g>
      <g transform="translate(6.181 2.293)" data-name="Group 3780" id="Group_3780">
        <path fill="#fff" transform="translate(-870.281 -534.184)" d="M874.361,556.182a4.085,4.085,0,0,1-4.08-4.08v-13.84a4.079,4.079,0,0,1,8.159,0V552.1A4.084,4.084,0,0,1,874.361,556.182Zm0-20.776a2.86,2.86,0,0,0-2.857,2.857V552.1a2.86,2.86,0,0,0,2.857,2.857h0a2.86,2.86,0,0,0,2.857-2.857v-13.84A2.86,2.86,0,0,0,874.361,535.406Z" data-name="Path 4827" id="Path_4827"></path>
      </g>
      <g transform="translate(13.117)" data-name="Group 3781" id="Group_3781">
        <path fill="#fff" transform="translate(-878.792 -531.37)" d="M883.205,557.955a4.417,4.417,0,0,1-4.413-4.412v-17.76a4.413,4.413,0,0,1,8.826,0v17.76A4.417,4.417,0,0,1,883.205,557.955Zm0-25.362a3.194,3.194,0,0,0-3.191,3.19v17.76a3.19,3.19,0,0,0,6.381,0v-17.76A3.194,3.194,0,0,0,883.205,532.593Z" data-name="Path 4828" id="Path_4828"></path>
      </g>
      <g transform="translate(20.721 1.965)" data-name="Group 3782" id="Group_3782">
        <path fill="#fff" transform="translate(-888.121 -533.781)" d="M892.419,556.436H892.2a4.085,4.085,0,0,1-4.081-4.081V537.862a4.085,4.085,0,0,1,4.081-4.081h.217a4.085,4.085,0,0,1,4.081,4.081v7.228a.611.611,0,1,1-1.223,0v-7.228A2.861,2.861,0,0,0,892.419,535H892.2a2.861,2.861,0,0,0-2.858,2.858v14.492a2.861,2.861,0,0,0,2.858,2.859h.217a2.861,2.861,0,0,0,2.858-2.859v-1.868a.611.611,0,1,1,1.223,0v1.868A4.085,4.085,0,0,1,892.419,556.436Z" data-name="Path 4829" id="Path_4829"></path>
      </g>
    </g>
  </g>
</svg>