<svg class="fl-photo-img wp-image-38586 size-full style-svg replaced-svg svg-replaced-0" id="svg-replaced-0" viewBox="0 0 135.297 141.837" height="141.837" width="135.297" xmlns="http://www.w3.org/2000/svg">
  <g transform="translate(-814.307 -490.331)" data-name="Group 3784" id="Group_3784">
    <g transform="translate(814.307 490.331)" data-name="Group 3765" id="Group_3765">
      <path fill="#fff" transform="translate(-814.307 -499.811)" d="M817.466,548.491l2.392.882,1.977-5.362,2.248.828-1.977,5.362,4.351,1.6-.911,2.472-11.238-4.143,3.155-8.558,2.248.83Z" data-name="Path 4791" id="Path_4791"></path>
      <path fill="#fff" transform="translate(-816.06 -496.795)" d="M835.21,535.106a6.141,6.141,0,0,1-8.656,1.848l-.029-.019a6.372,6.372,0,0,1,7.06-10.6l.029.019A6.2,6.2,0,0,1,835.21,535.106Zm-3.131-6.465a3.641,3.641,0,0,0-5.149.92,3.584,3.584,0,0,0,1.1,5.064l.028.019a3.642,3.642,0,0,0,5.15-.919,3.584,3.584,0,0,0-1.1-5.064Z" data-name="Path 4792" id="Path_4792"></path>
      <path fill="#fff" transform="translate(-818.597 -493.904)" d="M847.9,520.656a6.141,6.141,0,0,1-8.84-.453l-.022-.026a6.373,6.373,0,0,1,9.562-8.417l.022.026A6.2,6.2,0,0,1,847.9,520.656Zm-1.351-7.055a3.643,3.643,0,0,0-5.214-.443,3.586,3.586,0,0,0-.247,5.178l.024.025a3.641,3.641,0,0,0,5.212.443,3.584,3.584,0,0,0,.247-5.178Z" data-name="Path 4793" id="Path_4793"></path>
      <path fill="#fff" transform="translate(-821.451 -491.927)" d="M862.48,510.447l-4.175,2.1-5.38-10.707,4.176-2.1c3.365-1.69,6.85-.549,8.364,2.464l.016.031C866.994,505.249,865.845,508.756,862.48,510.447Zm.539-6.976a3.443,3.443,0,0,0-4.85-1.606l-1.82.914,3.243,6.455,1.821-.914a3.414,3.414,0,0,0,1.621-4.818Z" data-name="Path 4794" id="Path_4794"></path>
      <path fill="#fff" transform="translate(-826.747 -490.331)" d="M884.466,493.523l.32,2.53,5.67-.719.3,2.377-5.669.719.582,4.6-2.614.331-1.505-11.882,9.047-1.147.3,2.377Z" data-name="Path 4795" id="Path_4795"></path>
      <path fill="#fff" transform="translate(-829.881 -490.382)" d="M904.177,502.962a6.138,6.138,0,0,1-5.65-6.808l0-.033a6.368,6.368,0,0,1,12.661,1.335l0,.034A6.193,6.193,0,0,1,904.177,502.962Zm4.273-5.769a3.64,3.64,0,0,0-3.2-4.133,3.582,3.582,0,0,0-3.974,3.322l0,.034a3.641,3.641,0,0,0,3.2,4.134,3.583,3.583,0,0,0,3.974-3.323Z" data-name="Path 4796" id="Path_4796"></path>
      <path fill="#fff" transform="translate(-833.356 -490.965)" d="M924.1,507.525l-1.077-4.487-1.943-.72-1.331,3.6L917.275,505l4.161-11.239,5.138,1.9c2.649.981,3.72,2.966,2.865,5.278l-.011.032a3.722,3.722,0,0,1-3.7,2.593l1.26,5.03Zm2.788-7.383c.393-1.06-.143-1.879-1.348-2.325l-2.456-.91-1.194,3.227,2.5.927a1.74,1.74,0,0,0,2.483-.888Z" data-name="Path 4797" id="Path_4797"></path>
      <path fill="#fff" transform="translate(-837.258 -493.958)" d="M945.956,522.253l.9-2.759-3.865-3.275-2.574,1.341-2.05-1.738,11.72-5.885,1.854,1.571-3.885,12.526Zm2.987-9.137-3.727,1.935,2.429,2.059Z" data-name="Path 4798" id="Path_4798"></path>
      <path fill="#fff" transform="translate(-839.87 -496.047)" d="M952.487,528.448l9.568-7.217,1.587,2.1-7.654,5.774,3.6,4.77-1.913,1.443Z" data-name="Path 4799" id="Path_4799"></path>
      <path fill="#fff" transform="translate(-841.403 -498.692)" d="M960.77,540.705l10.8-5.18,1.14,2.376-8.643,4.144,2.583,5.386-2.161,1.036Z" data-name="Path 4800" id="Path_4800"></path>
      <path fill="#fff" transform="translate(-843.86 -505.222)" d="M974.059,573.479a2.55,2.55,0,1,1,2.653,2.443A2.556,2.556,0,0,1,974.059,573.479Z" data-name="Path 4801" id="Path_4801"></path>
      <path fill="#fff" transform="translate(-841.561 -510.118)" d="M962.666,606.5l2.9,0,1.911-4.694-2.077-2.028,1.014-2.49,9.242,9.307-.917,2.252-13.115.206Zm9.614-.006-3-2.939-1.2,2.949Z" data-name="Path 4802" id="Path_4802"></path>
      <path fill="#fff" transform="translate(-840.069 -513.343)" d="M958.492,614.721l9.82,6.86-1.509,2.16-7.856-5.487-3.42,4.9-1.964-1.372Z" data-name="Path 4803" id="Path_4803"></path>
      <path fill="#fff" transform="translate(-838.177 -515.473)" d="M949.561,626.235l8.279,8.662-1.906,1.822-6.623-6.93-4.318,4.127-1.656-1.732Z" data-name="Path 4804" id="Path_4804"></path>
      <path fill="#fff" transform="translate(-835.116 -518.055)" d="M934.082,649.971l-1.106-2.3-5.15,2.48-1.04-2.159,5.15-2.48-2.01-4.179,2.374-1.144,5.2,10.8-8.219,3.957-1.04-2.159Z" data-name="Path 4805" id="Path_4805"></path>
      <path fill="#fff" transform="translate(-831.374 -519.403)" d="M911.649,647.638a6.139,6.139,0,0,1,7.5,4.7l.007.033a6.371,6.371,0,0,1-12.447,2.7l-.007-.033A6.2,6.2,0,0,1,911.649,647.638Zm-2.253,6.819a3.641,3.641,0,0,0,4.337,2.923,3.584,3.584,0,0,0,2.734-4.4l-.007-.034a3.64,3.64,0,0,0-4.337-2.923,3.584,3.584,0,0,0-2.734,4.4Z" data-name="Path 4806" id="Path_4806"></path>
      <path fill="#fff" transform="translate(-828.003 -519.731)" d="M891.416,649.356l2.436,3.917,2.07.069.128-3.831,2.633.089-.4,11.969-5.472-.183c-2.821-.1-4.464-1.639-4.381-4.1v-.034a3.719,3.719,0,0,1,2.689-3.624l-2.781-4.372Zm-.315,7.882c-.038,1.129.729,1.736,2.011,1.778l2.616.088.115-3.437-2.667-.09c-1.283-.042-2.041.617-2.075,1.626Z" data-name="Path 4807" id="Path_4807"></path>
      <path fill="#fff" transform="translate(-822.964 -519.038)" d="M868.015,654.461l.905-2.383-5.341-2.031.852-2.239,5.341,2.031,1.648-4.333,2.463.936-4.257,11.2L861.1,654.4l.851-2.24Z" data-name="Path 4808" id="Path_4808"></path>
      <path fill="#fff" transform="translate(-819.976 -517.15)" d="M854.831,636.485a6.138,6.138,0,0,1,1.763,8.671l-.019.028a6.37,6.37,0,0,1-10.53-7.161l.019-.029A6.194,6.194,0,0,1,854.831,636.485Zm-6.492,3.065a3.64,3.64,0,0,0,.87,5.157,3.582,3.582,0,0,0,5.073-1.051l.02-.028a3.64,3.64,0,0,0-.87-5.157,3.583,3.583,0,0,0-5.073,1.051Z" data-name="Path 4809" id="Path_4809"></path>
      <path fill="#fff" transform="translate(-817.108 -514.56)" d="M840.495,623.608a6.14,6.14,0,0,1-.544,8.833l-.026.022a6.371,6.371,0,0,1-8.315-9.646l.025-.022A6.2,6.2,0,0,1,840.495,623.608Zm-7.067,1.279a3.64,3.64,0,0,0-.5,5.206,3.583,3.583,0,0,0,5.173.3l.026-.022a3.641,3.641,0,0,0,.5-5.207,3.584,3.584,0,0,0-5.174-.3Z" data-name="Path 4810" id="Path_4810"></path>
      <path fill="#fff" transform="translate(-815.164 -511.563)" d="M830.45,608.812l2.055,4.2-10.76,5.266-2.055-4.2c-1.654-3.381-.478-6.854,2.55-8.336l.031-.016C825.3,604.246,828.795,605.431,830.45,608.812Zm-6.967-.611a3.442,3.442,0,0,0-1.656,4.831l.9,1.829,6.486-3.174-.895-1.83a3.413,3.413,0,0,0-4.8-1.671Z" data-name="Path 4811" id="Path_4811"></path>
      <path fill="#fff" transform="translate(-814.424 -506.253)" d="M820.042,578.874a2.551,2.551,0,1,1-2.62-2.479A2.556,2.556,0,0,1,820.042,578.874Z" data-name="Path 4812" id="Path_4812"></path>
    </g>
    <g transform="translate(898.088 549.313)" data-name="Group 3766" id="Group_3766">
      <path fill="#fff" transform="translate(-917.106 -562.702)" d="M950.761,563.925H917.717a.611.611,0,1,1,0-1.223h33.043a.611.611,0,0,1,0,1.223Z" data-name="Path 4813" id="Path_4813"></path>
    </g>
    <g transform="translate(898.088 536.645)" data-name="Group 3767" id="Group_3767">
      <path fill="#fff" transform="translate(-917.106 -547.158)" d="M917.717,561.049a.611.611,0,0,1-.006-1.223c11.565-.12,23.024-12.35,23.137-12.474a.612.612,0,0,1,.9.831c-.482.52-11.928,12.739-24.023,12.865Z" data-name="Path 4814" id="Path_4814"></path>
    </g>
    <g transform="translate(898.088 549.313)" data-name="Group 3768" id="Group_3768">
      <path fill="#fff" transform="translate(-917.106 -562.702)" d="M941.3,576.594a.614.614,0,0,1-.449-.2c-.113-.124-11.572-12.353-23.137-12.474a.613.613,0,0,1-.606-.618.587.587,0,0,1,.618-.6c12.1.126,23.541,12.346,24.023,12.866a.611.611,0,0,1-.449,1.027Z" data-name="Path 4815" id="Path_4815"></path>
    </g>
    <g transform="translate(923.996 544.07)" data-name="Group 3769" id="Group_3769">
      <path fill="#fff" transform="translate(-948.895 -556.268)" d="M953.359,567.979a.61.61,0,0,1-.493-.25l-3.853-5.245a.611.611,0,0,1,0-.724l3.853-5.244a.612.612,0,0,1,.985.725l-3.587,4.881L953.851,567a.613.613,0,0,1-.131.855A.6.6,0,0,1,953.359,567.979Z" data-name="Path 4816" id="Path_4816"></path>
    </g>
    <g transform="translate(917.816 544.07)" data-name="Group 3770" id="Group_3770">
      <path fill="#fff" transform="translate(-941.312 -556.268)" d="M945.776,567.979a.611.611,0,0,1-.493-.249l-3.853-5.245a.612.612,0,0,1,0-.724l3.853-5.244a.612.612,0,0,1,.985.725l-3.588,4.881L946.269,567a.612.612,0,0,1-.131.855A.6.6,0,0,1,945.776,567.979Z" data-name="Path 4817" id="Path_4817"></path>
    </g>
    <g transform="translate(916.362 556.576)" data-name="Group 3771" id="Group_3771">
      <path fill="#fff" transform="translate(-939.527 -571.613)" d="M940.139,578.59a.55.55,0,0,1-.063,0,.611.611,0,0,1-.546-.67l.491-4.79a.609.609,0,0,1,.486-.536l4.716-.965a.611.611,0,0,1,.245,1.2l-4.276.875-.445,4.343A.61.61,0,0,1,940.139,578.59Z" data-name="Path 4818" id="Path_4818"></path>
    </g>
    <g transform="translate(912.006 553.474)" data-name="Group 3772" id="Group_3772">
      <path fill="#fff" transform="translate(-934.183 -567.807)" d="M934.8,574.784a.556.556,0,0,1-.064,0,.612.612,0,0,1-.546-.67l.491-4.79a.61.61,0,0,1,.486-.536l4.716-.965a.611.611,0,1,1,.245,1.2l-4.276.875-.445,4.343A.611.611,0,0,1,934.8,574.784Z" data-name="Path 4819" id="Path_4819"></path>
    </g>
    <g transform="translate(915.815 536.644)" data-name="Group 3773" id="Group_3773">
      <path fill="#fff" transform="translate(-938.857 -547.156)" d="M945.222,553.586a.542.542,0,0,1-.063,0l-4.79-.49a.609.609,0,0,1-.536-.485l-.964-4.717a.611.611,0,1,1,1.2-.245l.874,4.277,4.343.444a.611.611,0,0,1-.061,1.219Z" data-name="Path 4820" id="Path_4820"></path>
    </g>
    <g transform="translate(911.733 539.616)" data-name="Group 3774" id="Group_3774">
      <path fill="#fff" transform="translate(-933.848 -550.804)" d="M940.214,557.233a.541.541,0,0,1-.063,0l-4.79-.49a.61.61,0,0,1-.536-.486l-.965-4.716a.611.611,0,1,1,1.2-.245l.875,4.276,4.343.445a.611.611,0,0,1-.061,1.219Z" data-name="Path 4821" id="Path_4821"></path>
    </g>
    <g transform="translate(892.355 539.067)" data-name="Group 3775" id="Group_3775">
      <path fill="#fff" transform="translate(-910.071 -550.13)" d="M910.682,572.894a.612.612,0,0,1-.075-1.218c8.319-1.043,8.315-4.723,8.307-9.817v-.568c0-5.2,0-8.953-7.181-9.944a.611.611,0,0,1,.167-1.211c8.237,1.136,8.237,6,8.236,11.155v.566c.007,5.067.013,9.853-9.377,11.032A.611.611,0,0,1,910.682,572.894Z" data-name="Path 4822" id="Path_4822"></path>
    </g>
    <g transform="translate(839.521 544.546)" data-name="Group 3776" id="Group_3776">
      <path fill="#fff" transform="translate(-845.245 -556.853)" d="M879.594,572.625a.59.59,0,0,1-.124-.013c-15.215-3.123-33.625-9.3-33.809-9.361a.612.612,0,0,1-.015-1.154c.077-.028,7.813-2.836,16.1-5.22a.611.611,0,1,1,.337,1.174c-5.951,1.712-11.62,3.645-14.339,4.6,4.9,1.593,19.517,6.21,31.971,8.766a.611.611,0,0,1-.121,1.209Z" data-name="Path 4823" id="Path_4823"></path>
    </g>
    <g transform="translate(853.745 523.778)" data-name="Group 3783" id="Group_3783">
      <g transform="translate(1.203 30.724)" data-name="Group 3777" id="Group_3777">
        <path fill="#fff" transform="translate(-864.173 -569.068)" d="M870.8,618.552h0a.612.612,0,0,1-.606-.616c0-.276.219-27.637,0-30.918-.112-1.663-1.888-5.416-4.875-10.3a7.76,7.76,0,0,1-1.141-4.055v-2.989a.611.611,0,0,1,1.223,0v2.989a6.537,6.537,0,0,0,.962,3.417c1.813,2.963,4.883,8.313,5.051,10.852.221,3.327.01,29.88,0,31.009A.612.612,0,0,1,870.8,618.552Z" data-name="Path 4824" id="Path_4824"></path>
      </g>
      <g transform="translate(14.657 12.012)" data-name="Group 3778" id="Group_3778">
        <path fill="#fff" transform="translate(-880.681 -546.108)" d="M895.66,614.131a.612.612,0,0,1-.611-.611V581.777a.612.612,0,0,1,.258-.5c.1-.068,9.739-6.963,11.228-13.668,1.017-4.575.06-12.52-.6-16.849a4.025,4.025,0,0,0-4.344-3.413l-9.391.837a1.4,1.4,0,0,0-.944,2.288l1.022,1.214a1.28,1.28,0,0,0,1.1.5l8.057-.2a.612.612,0,0,1,.518.96c-.044.064-4.47,6.52-4.793,13.6a.606.606,0,0,1-.215.438.628.628,0,0,1-.468.141c-.435-.052-10.592-1.109-14.606,10.728a.611.611,0,0,1-1.157-.394c2.262-6.671,6.459-9.459,9.581-10.623a15.4,15.4,0,0,1,5.682-.967,30.376,30.376,0,0,1,4.34-12.634l-6.908.171a2.606,2.606,0,0,1-2.068-.933l-1.022-1.214a2.618,2.618,0,0,1,1.772-4.292l9.39-.837a5.269,5.269,0,0,1,5.66,4.447c.824,5.391,1.594,12.769.587,17.3-1.469,6.606-9.837,13.023-11.457,14.213v31.43A.611.611,0,0,1,895.66,614.131Z" data-name="Path 4825" id="Path_4825"></path>
      </g>
      <g transform="translate(0 4.339)" data-name="Group 3779" id="Group_3779">
        <path fill="#fff" transform="translate(-862.697 -536.694)" d="M866.365,554.6a3.671,3.671,0,0,1-3.667-3.667V540.361a3.667,3.667,0,1,1,7.334,0v10.571A3.671,3.671,0,0,1,866.365,554.6Zm0-16.683a2.448,2.448,0,0,0-2.445,2.445v10.571a2.445,2.445,0,0,0,4.889,0V540.361A2.447,2.447,0,0,0,866.365,537.917Z" data-name="Path 4826" id="Path_4826"></path>
      </g>
      <g transform="translate(6.181 2.293)" data-name="Group 3780" id="Group_3780">
        <path fill="#fff" transform="translate(-870.281 -534.184)" d="M874.361,556.182a4.085,4.085,0,0,1-4.08-4.08v-13.84a4.079,4.079,0,0,1,8.159,0V552.1A4.084,4.084,0,0,1,874.361,556.182Zm0-20.776a2.86,2.86,0,0,0-2.857,2.857V552.1a2.86,2.86,0,0,0,2.857,2.857h0a2.86,2.86,0,0,0,2.857-2.857v-13.84A2.86,2.86,0,0,0,874.361,535.406Z" data-name="Path 4827" id="Path_4827"></path>
      </g>
      <g transform="translate(13.117)" data-name="Group 3781" id="Group_3781">
        <path fill="#fff" transform="translate(-878.792 -531.37)" d="M883.205,557.955a4.417,4.417,0,0,1-4.413-4.412v-17.76a4.413,4.413,0,0,1,8.826,0v17.76A4.417,4.417,0,0,1,883.205,557.955Zm0-25.362a3.194,3.194,0,0,0-3.191,3.19v17.76a3.19,3.19,0,0,0,6.381,0v-17.76A3.194,3.194,0,0,0,883.205,532.593Z" data-name="Path 4828" id="Path_4828"></path>
      </g>
      <g transform="translate(20.721 1.965)" data-name="Group 3782" id="Group_3782">
        <path fill="#fff" transform="translate(-888.121 -533.781)" d="M892.419,556.436H892.2a4.085,4.085,0,0,1-4.081-4.081V537.862a4.085,4.085,0,0,1,4.081-4.081h.217a4.085,4.085,0,0,1,4.081,4.081v7.228a.611.611,0,1,1-1.223,0v-7.228A2.861,2.861,0,0,0,892.419,535H892.2a2.861,2.861,0,0,0-2.858,2.858v14.492a2.861,2.861,0,0,0,2.858,2.859h.217a2.861,2.861,0,0,0,2.858-2.859v-1.868a.611.611,0,1,1,1.223,0v1.868A4.085,4.085,0,0,1,892.419,556.436Z" data-name="Path 4829" id="Path_4829"></path>
      </g>
    </g>
  </g>
</svg>