<svg xmlns="http://www.w3.org/2000/svg" width="110.883" height="113.87" viewBox="0 0 110.883 113.87">
  <g id="Group_3815" data-name="Group 3815" transform="translate(-1003.358 -798.553)">
    <g id="Group_3785" data-name="Group 3785" transform="translate(1041.148 782.691) rotate(30)">
      <path id="Path_4830" data-name="Path 4830" d="M2.536,5.274l1.758.855L6.21,2.189l1.651.8L5.945,6.932l3.2,1.554L8.259,10.3,0,6.288,3.058,0,4.71.8Z" transform="translate(1.034 27.149)" fill="#fff"/>
      <path id="Path_4831" data-name="Path 4831" d="M7.231,11.111,0,5.455,4.267,0,5.683,1.107,2.652,4.981,4.119,6.129,6.786,2.72,8.2,3.827,5.535,7.236,7.053,8.424,10.124,4.5l1.415,1.107Z" transform="translate(6.473 17.983)" fill="#fff"/>
      <path id="Path_4832" data-name="Path 4832" d="M5.884,11.489,0,4.438,5.319,0,6.47,1.38,2.693,4.532,3.886,5.962,7.21,3.189l1.152,1.38L5.038,7.342,6.273,8.823,10.1,5.629l1.152,1.38Z" transform="translate(13.995 10.235)" fill="#fff"/>
      <path id="Path_4833" data-name="Path 4833" d="M7.326,8.8l-3.2,1.611L0,2.214,3.2.6a4.576,4.576,0,0,1,6.41,1.882l.011.023A4.6,4.6,0,0,1,7.326,8.8Zm.406-5.343A2.636,2.636,0,0,0,4.017,2.232l-1.393.7L5.112,7.876l1.394-.7A2.616,2.616,0,0,0,7.745,3.482Z" transform="translate(23.293 5.36)" fill="#fff"/>
      <path id="Path_4834" data-name="Path 4834" d="M5.337,9.476A4.7,4.7,0,0,1,.028,5.264l0-.026A4.747,4.747,0,0,1,4.418.028a4.7,4.7,0,0,1,5.31,4.213l0,.026A4.746,4.746,0,0,1,5.337,9.476Zm2.293-5A2.788,2.788,0,0,0,4.577,1.883,2.745,2.745,0,0,0,2.122,5l0,.026A2.79,2.79,0,0,0,5.178,7.621,2.745,2.745,0,0,0,7.633,4.5Z" transform="translate(41.383 0.077)" fill="#fff"/>
      <path id="Path_4835" data-name="Path 4835" d="M6.364,10.05,2.856,3.608,1.97,9.375,0,9.073,1.395,0,3.235.283,6.627,6.522,7.486.936l1.97.3L8.061,10.311Z" transform="translate(54.148 0)" fill="#fff"/>
      <path id="Path_4836" data-name="Path 4836" d="M4.593,3.517,1.875,10.312,0,9.562l2.717-6.8L.123,1.729.815,0,7.878,2.824l-.691,1.73Z" transform="translate(67.084 2.439)" fill="#fff"/>
      <path id="Path_4837" data-name="Path 4837" d="M6.362,9.75l.433-2.181L3.554,5.43,1.719,6.686,0,5.553,8.378,0,9.932,1.026,8.125,10.912ZM7.8,2.524,5.138,4.339,7.175,5.682Z" transform="translate(72.006 8.355)" fill="#fff"/>
      <path id="Path_4838" data-name="Path 4838" d="M3.808,10.345l.8-3.445L3.527,5.741,1.38,7.747,0,6.27,6.711,0,9.578,3.068c1.478,1.582,1.531,3.31.151,4.6l-.019.018a2.852,2.852,0,0,1-3.424.505L5.42,12.07Zm4.446-4.1c.633-.591.546-1.336-.125-2.056L6.759,2.722l-1.927,1.8,1.4,1.5a1.335,1.335,0,0,0,2.007.245Z" transform="translate(81.751 14.552)" fill="#fff"/>
      <path id="Path_4839" data-name="Path 4839" d="M0,5.016,7.691,0l1.1,1.692L1.1,6.708Z" transform="translate(88.526 23.796)" fill="#fff"/>
      <path id="Path_4840" data-name="Path 4840" d="M.392,6.649A4.7,4.7,0,0,1,2.936.364L2.959.355A4.747,4.747,0,0,1,9.2,3.1,4.7,4.7,0,0,1,6.656,9.385l-.024.009A4.747,4.747,0,0,1,.392,6.649Zm5.445.789A2.789,2.789,0,0,0,7.464,3.777,2.745,2.745,0,0,0,3.779,2.3l-.024.009A2.79,2.79,0,0,0,2.128,5.973,2.745,2.745,0,0,0,5.813,7.448Z" transform="translate(92.54 30.711)" fill="#fff"/>
      <path id="Path_4841" data-name="Path 4841" d="M.025,1.643A1.955,1.955,0,1,1,1.643,3.885,1.96,1.96,0,0,1,.025,1.643Z" transform="translate(98.397 60.32)" fill="#fff"/>
      <path id="Path_4842" data-name="Path 4842" d="M1.264,2.739,3.572,0,10.6,5.917,8.289,8.657a4.578,4.578,0,0,1-6.636.791L1.632,9.43A4.6,4.6,0,0,1,1.264,2.739ZM2.993,7.815a2.638,2.638,0,0,0,3.9-.333L7.9,6.287,3.665,2.72,2.659,3.914A2.618,2.618,0,0,0,2.973,7.8Z" transform="translate(84.806 80.225)" fill="#fff"/>
      <path id="Path_4843" data-name="Path 4843" d="M5.592,0l5.5,7.345L5.555,11.5,4.479,10.059,8.413,7.11,7.3,5.62,3.834,8.215,2.757,6.777,6.22,4.183,5.064,2.641,1.077,5.628,0,4.191Z" transform="translate(75.343 88.4)" fill="#fff"/>
      <path id="Path_4844" data-name="Path 4844" d="M5.977,0,9.859,8.318l-1.83.854L4.924,2.518.776,4.454,0,2.79Z" transform="translate(67.037 93.902)" fill="#fff"/>
      <path id="Path_4845" data-name="Path 4845" d="M1.943,0l2.5,8.832L2.5,9.382,0,.55Z" transform="translate(62.618 97.389)" fill="#fff"/>
      <path id="Path_4846" data-name="Path 4846" d="M2.795.174,4.57,0l4.6,8.843-2.22.217-3.019-6.2L2.167,9.528,0,9.74Z" transform="translate(52.021 98.999)" fill="#fff"/>
      <path id="Path_4847" data-name="Path 4847" d="M8.013.869,6.873,9.981,0,9.121.223,7.337,5.1,7.948,5.336,6.1l-4.3-.538.224-1.783,4.3.538L5.8,2.4.852,1.784,1.076,0Z" transform="translate(40.856 98.554)" fill="#fff"/>
      <path id="Path_4848" data-name="Path 4848" d="M4.265.8l.851,3.431,1.491.539,1-2.762,1.9.686L6.384,11.33,2.438,9.9C.4,9.168-.429,7.653.213,5.878l.009-.025A2.849,2.849,0,0,1,3.039,3.846L2.046,0ZM2.172,6.475c-.294.814.121,1.438,1.046,1.772L5.1,8.93,6,6.451l-1.924-.7a1.334,1.334,0,0,0-1.9.695Z" transform="translate(29.866 95.232)" fill="#fff"/>
      <path id="Path_4849" data-name="Path 4849" d="M10.779,3.763,5.836,11.5,0,7.773.967,6.258,5.112,8.907l1-1.57L2.467,5.007l.968-1.515,3.647,2.33L8.12,4.2,3.92,1.515,4.888,0Z" transform="translate(19.035 90.314)" fill="#fff"/>
      <path id="Path_4850" data-name="Path 4850" d="M8.084,1.589l2.505,2.557L4.032,10.571,1.527,8.013a4.575,4.575,0,0,1-.154-6.678l.018-.018A4.6,4.6,0,0,1,8.084,1.589ZM2.869,2.825a2.635,2.635,0,0,0-.04,3.912L3.92,7.853,7.874,3.979,6.782,2.865a2.617,2.617,0,0,0-3.895-.059Z" transform="translate(11.282 84.55)" fill="#fff"/>
      <path id="Path_4851" data-name="Path 4851" d="M3.892,1.709A1.954,1.954,0,1,1,1.71.016,1.958,1.958,0,0,1,3.892,1.709Z" transform="translate(0 58.582)" fill="#fff"/>
    </g>
    <g id="Path_4668" data-name="Path 4668" transform="translate(1039.09 859.054)">
      <path id="Path_4852" data-name="Path 4852" d="M1073.061,926.947a2.53,2.53,0,0,1-2.522-2.476V905.354a.39.39,0,0,1,.613-.32l15.651,10.92a4.245,4.245,0,0,0,5.007,0l15.565-10.923a.391.391,0,0,1,.615.32v19.187a2.434,2.434,0,0,1-.746,1.716,2.5,2.5,0,0,1-1.744.689h-32.441ZM1071.32,906.1v18.361a1.747,1.747,0,0,0,1.746,1.7h32.443a1.633,1.633,0,0,0,1.194-.47,1.656,1.656,0,0,0,.508-1.172V906.1l-14.946,10.488a5.021,5.021,0,0,1-5.914,0Z" transform="translate(-1070.539 -904.964)" fill="#fff"/>
    </g>
    <g id="Group_3786" data-name="Group 3786" transform="translate(1057.18 825.113)">
      <path id="Path_4853" data-name="Path 4853" d="M1100.061,870.412a.416.416,0,0,1-.417-.413l-.139-18.962a.417.417,0,0,1,.413-.42.4.4,0,0,1,.42.413l.139,18.963a.417.417,0,0,1-.414.419Z" transform="translate(-1099.505 -850.617)" fill="#fff"/>
    </g>
    <g id="Group_3787" data-name="Group 3787" transform="translate(1057.314 829.757)">
      <path id="Path_4854" data-name="Path 4854" d="M1100.136,872.485a.358.358,0,0,1-.058,0,.416.416,0,0,1-.355-.47c.061-.443,1.553-10.892,4.946-13.855a.416.416,0,1,1,.547.627c-3.159,2.759-4.655,13.238-4.669,13.343A.417.417,0,0,1,1100.136,872.485Z" transform="translate(-1099.72 -858.053)" fill="#fff"/>
    </g>
    <g id="Group_3788" data-name="Group 3788" transform="translate(1052.222 829.83)">
      <path id="Path_4855" data-name="Path 4855" d="M1096.989,872.53a.417.417,0,0,1-.411-.353c-.016-.1-1.665-10.561-4.865-13.273a.416.416,0,0,1,.538-.636c3.436,2.913,5.082,13.339,5.15,13.782a.416.416,0,0,1-.348.475A.456.456,0,0,1,1096.989,872.53Z" transform="translate(-1091.566 -858.169)" fill="#fff"/>
    </g>
    <g id="Group_3789" data-name="Group 3789" transform="translate(1056.251 863.038)">
      <path id="Path_4856" data-name="Path 4856" d="M1100.9,915.305a.417.417,0,0,1-.386-.261l-.867-2.151-.827,2.142a.416.416,0,1,1-.777-.3l1.207-3.125a.418.418,0,0,1,.385-.267.427.427,0,0,1,.389.261l1.261,3.13a.417.417,0,0,1-.386.573Z" transform="translate(-1098.018 -911.342)" fill="#fff"/>
    </g>
    <g id="Group_3790" data-name="Group 3790" transform="translate(1055.026 863.038)">
      <path id="Path_4857" data-name="Path 4857" d="M1096.473,913.938a.416.416,0,0,1-.245-.753l2.428-1.762a.416.416,0,0,1,.484,0l2.471,1.739a.416.416,0,1,1-.479.681l-2.228-1.568-2.187,1.588A.413.413,0,0,1,1096.473,913.938Z" transform="translate(-1096.056 -911.342)" fill="#fff"/>
    </g>
    <g id="Group_3791" data-name="Group 3791" transform="translate(1047.658 843.356)">
      <path id="Path_4858" data-name="Path 4858" d="M1094.388,900.343c-5.56,0-10.095-3.707-10.129-8.3-.019-2.55,2.313-4.452,4.781-6.466,2.032-1.657,4.132-3.371,4.9-5.477a.416.416,0,0,1,.391-.274h0a.418.418,0,0,1,.391.275c.76,2.1,2.905,3.794,4.979,5.428,2.5,1.967,4.854,3.826,4.873,6.363.034,4.617-4.5,8.406-10.1,8.448Zm-.057-19.084c-1.018,1.909-2.918,3.459-4.764,4.965-2.309,1.884-4.491,3.664-4.475,5.814.03,4.134,4.193,7.471,9.3,7.472h.084c5.142-.038,9.3-3.451,9.269-7.609-.015-2.137-2.221-3.875-4.555-5.714C1097.3,884.7,1095.356,883.168,1094.331,881.259Z" transform="translate(-1084.259 -879.828)" fill="#fff"/>
    </g>
    <g id="Group_3792" data-name="Group 3792" transform="translate(1052.446 843.356)">
      <path id="Path_4859" data-name="Path 4859" d="M1092.5,899.321a.416.416,0,0,1-.407-.334c-1.112-5.508,3.779-16.769,4.627-18.661a.417.417,0,0,1,.405-.5h.086a.387.387,0,0,1,.352.191.418.418,0,0,1,.061.3c.875,1.879,5.931,13.066,4.9,18.59a.416.416,0,0,1-.819-.152c.886-4.748-3.172-14.373-4.527-17.4-1.31,3.047-5.225,12.732-4.27,17.465a.415.415,0,0,1-.325.49A.424.424,0,0,1,1092.5,899.321Z" transform="translate(-1091.925 -879.828)" fill="#fff"/>
    </g>
    <g id="Group_3793" data-name="Group 3793" transform="translate(1057.319 844.075)">
      <path id="Path_4860" data-name="Path 4860" d="M1100.283,900.775a.417.417,0,0,1-.417-.413l-.139-18.963a.417.417,0,1,1,.833-.006l.139,18.962a.417.417,0,0,1-.413.42Z" transform="translate(-1099.728 -880.979)" fill="#fff"/>
    </g>
    <g id="Group_3794" data-name="Group 3794" transform="translate(1039.744 857.595)">
      <path id="Path_4861" data-name="Path 4861" d="M1079.918,903.408h-7.94a.39.39,0,0,1,0-.781h7.94a.39.39,0,0,1,0,.781Z" transform="translate(-1071.587 -902.627)" fill="#fff"/>
    </g>
    <g id="Group_3795" data-name="Group 3795" transform="translate(1067.059 857.595)">
      <path id="Path_4862" data-name="Path 4862" d="M1123.655,903.408h-7.94a.39.39,0,1,1,0-.781h7.94a.39.39,0,1,1,0,.781Z" transform="translate(-1115.324 -902.627)" fill="#fff"/>
    </g>
  </g>
</svg>
