<svg xmlns="http://www.w3.org/2000/svg" width="412.056" height="186.5" viewBox="0 0 412.056 186.5">
  <g id="Group_3321" data-name="Group 3321" transform="translate(-67.608 -147.751)">
    <g id="Group_3318" data-name="Group 3318" transform="translate(216.626 195.884)">
      <path id="Path_4277" data-name="Path 4277" d="M176.675,186.762a3.753,3.753,0,0,1,3.781-3.782H199.7a3.438,3.438,0,1,1,0,6.875H184.236v7.315h13.256a3.436,3.436,0,1,1,0,6.872H184.236v9.82a3.781,3.781,0,1,1-7.561,0Z" transform="translate(-176.675 -182.98)" fill="#002e3c"/>
      <path id="Path_4278" data-name="Path 4278" d="M203.838,213.569V186.762a3.753,3.753,0,0,1,3.781-3.782h19.049a3.4,3.4,0,0,1,3.388,3.388,3.353,3.353,0,0,1-3.388,3.339H211.35v6.971h13.11a3.4,3.4,0,0,1,3.387,3.388,3.352,3.352,0,0,1-3.387,3.338H211.35v7.218h15.564a3.393,3.393,0,0,1,3.387,3.387,3.352,3.352,0,0,1-3.387,3.339H207.619A3.751,3.751,0,0,1,203.838,213.569Z" transform="translate(-166.725 -182.98)" fill="#002e3c"/>
      <path id="Path_4279" data-name="Path 4279" d="M231.5,213.569V186.762a3.753,3.753,0,0,1,3.781-3.782h19.049a3.4,3.4,0,0,1,3.388,3.388,3.353,3.353,0,0,1-3.388,3.339H239.017v6.971h13.11a3.4,3.4,0,0,1,3.387,3.388,3.352,3.352,0,0,1-3.387,3.338h-13.11v7.218H254.58a3.393,3.393,0,0,1,3.387,3.387,3.352,3.352,0,0,1-3.387,3.339H235.286A3.752,3.752,0,0,1,231.5,213.569Z" transform="translate(-156.591 -182.98)" fill="#002e3c"/>
      <path id="Path_4280" data-name="Path 4280" d="M259.171,186.762a3.753,3.753,0,0,1,3.781-3.782h9.623c10.8,0,18.265,7.415,18.265,17.087v.1c0,9.672-7.463,17.184-18.265,17.184h-9.623a3.752,3.752,0,0,1-3.781-3.781Zm13.4,23.763c6.187,0,10.361-4.174,10.361-10.262v-.1c0-6.088-4.174-10.359-10.361-10.359h-5.842v20.719Z" transform="translate(-146.457 -182.98)" fill="#002e3c"/>
    </g>
    <g id="Group_3319" data-name="Group 3319" transform="translate(215.104 248.85)">
      <path id="Path_4281" data-name="Path 4281" d="M175.561,239.617v-.1c0-9.77,7.709-17.774,18.314-17.774s18.214,7.905,18.214,17.677v.1c0,9.77-7.707,17.774-18.313,17.774S175.561,249.39,175.561,239.617Zm28.624,0v-.1c0-5.892-4.322-10.8-10.408-10.8s-10.31,4.811-10.31,10.7v.1c0,5.89,4.32,10.8,10.408,10.8S204.185,245.51,204.185,239.617Z" transform="translate(-175.561 -221.746)" fill="#002e3c"/>
      <path id="Path_4282" data-name="Path 4282" d="M210.809,225.841a3.751,3.751,0,0,1,3.781-3.781h.786a4.687,4.687,0,0,1,3.928,2.209l14.581,19.149V225.693a3.731,3.731,0,0,1,7.463,0v27.348a3.752,3.752,0,0,1-3.781,3.781h-.246a4.686,4.686,0,0,1-3.928-2.209l-15.121-19.835v18.41a3.731,3.731,0,1,1-7.463,0Z" transform="translate(-162.65 -221.667)" fill="#002e3c"/>
      <path id="Path_4283" data-name="Path 4283" d="M251.527,229.15h-7.266a3.486,3.486,0,1,1,0-6.972h22.092a3.486,3.486,0,1,1,0,6.972h-7.265v23.91a3.781,3.781,0,1,1-7.561,0Z" transform="translate(-151.673 -221.588)" fill="#002e3c"/>
      <path id="Path_4284" data-name="Path 4284" d="M265.54,251.829l11.981-27.051a4.669,4.669,0,0,1,4.419-2.995h.441a4.61,4.61,0,0,1,4.371,2.995l11.978,27.051a3.683,3.683,0,0,1,.392,1.523,3.584,3.584,0,0,1-3.584,3.633,3.852,3.852,0,0,1-3.633-2.6l-2.306-5.4H274.476l-2.4,5.646a3.715,3.715,0,0,1-3.485,2.358,3.479,3.479,0,0,1-3.487-3.535A4.026,4.026,0,0,1,265.54,251.829ZM286.8,242.3l-4.763-11.342L277.275,242.3Z" transform="translate(-142.763 -221.732)" fill="#002e3c"/>
      <path id="Path_4285" data-name="Path 4285" d="M298.37,225.959a3.751,3.751,0,0,1,3.781-3.781h11.931c4.371,0,7.758,1.227,10.016,3.485a10.787,10.787,0,0,1,2.946,7.856v.1c0,5.4-2.7,8.739-6.872,10.458l5.252,6.382a4.41,4.41,0,0,1,1.228,2.9,3.518,3.518,0,0,1-3.584,3.487,4.528,4.528,0,0,1-3.733-1.965l-7.363-9.328h-6.039v7.512a3.781,3.781,0,0,1-7.562,0Zm15.221,12.913c3.682,0,5.793-1.965,5.793-4.861v-.1c0-3.24-2.259-4.909-5.939-4.909h-7.512v9.869Z" transform="translate(-130.576 -221.588)" fill="#002e3c"/>
      <path id="Path_4286" data-name="Path 4286" d="M328.194,225.742a3.78,3.78,0,0,1,7.56,0v27.4a3.78,3.78,0,1,1-7.56,0Z" transform="translate(-119.652 -221.667)" fill="#002e3c"/>
      <path id="Path_4287" data-name="Path 4287" d="M342.457,239.617v-.1c0-9.77,7.709-17.774,18.314-17.774s18.216,7.905,18.216,17.677v.1c0,9.77-7.709,17.774-18.314,17.774S342.457,249.39,342.457,239.617Zm28.625,0v-.1c0-5.892-4.322-10.8-10.41-10.8s-10.31,4.811-10.31,10.7v.1c0,5.89,4.322,10.8,10.408,10.8S371.082,245.51,371.082,239.617Z" transform="translate(-114.427 -221.746)" fill="#002e3c"/>
    </g>
    <g id="Group_3320" data-name="Group 3320" transform="translate(67.608 147.751)">
      <path id="Path_4288" data-name="Path 4288" d="M99.661,274.974a6.026,6.026,0,0,1-12.052,0V153.79a6.026,6.026,0,1,1,12.052,0Z" transform="translate(-60.282 -147.747)" fill="#24c1d8"/>
      <path id="Path_4289" data-name="Path 4289" d="M119.68,274.974a6.026,6.026,0,0,1-12.052,0V153.79a6.026,6.026,0,1,1,12.052,0Z" transform="translate(-52.949 -147.747)" fill="#24c1d8"/>
      <path id="Path_4290" data-name="Path 4290" d="M139.7,274.974a6.026,6.026,0,0,1-12.052,0V153.79a6.026,6.026,0,1,1,12.052,0Z" transform="translate(-45.615 -147.747)" fill="#24c1d8"/>
      <path id="Path_4291" data-name="Path 4291" d="M188.822,271.372c0,34.724-27.118,62.879-60.569,62.879S67.685,306.1,67.685,271.372l-.077-7.867V216.05a6.026,6.026,0,0,1,12.052,0l.034,55.741c0,27.851,21.747,50.429,48.576,50.429s48.58-22.578,48.58-50.429l-.026-118.073a6.026,6.026,0,0,1,12.052,0Z" transform="translate(-67.608 -147.751)" fill="#24c1d8"/>
    </g>
  </g>
</svg>
