<svg xmlns="http://www.w3.org/2000/svg" width="35.384" height="49.267" viewBox="0 0 35.384 49.267">
  <g id="Group_3560" data-name="Group 3560" transform="translate(-29.752 -21.808)">
    <path id="Path_4640" data-name="Path 4640" d="M55.731,31.368l-3.154,8.3,2.449,2.356,3.835-3.68a1.309,1.309,0,0,1,1.816,0l2.961,2.84L65.9,35.233a3.144,3.144,0,0,0-1.82-4.05l-2.144-.815-.005,0-.005,0-2.143-.815A3.146,3.146,0,0,0,55.731,31.368Z" transform="translate(-2.881 -0.951)" fill="#24c1d8"/>
    <path id="Path_4641" data-name="Path 4641" d="M29.752,44.068V73.526a.537.537,0,0,0,.469.2H64.6a.537.537,0,0,0,.471-.2V44.065l-2.53,2.426a1.308,1.308,0,0,1-1.812,0l-3.84-3.682L53.052,46.49a1.309,1.309,0,0,1-1.816,0L47.4,42.809l-.721.692-.045.043L43.571,46.49a1.31,1.31,0,0,1-1.816,0l-3.832-3.681-3.832,3.68a1.31,1.31,0,0,1-1.816,0Z" transform="translate(0 -2.651)" fill="#24c1d8"/>
    <path id="Path_4642" data-name="Path 4642" d="M36.8,28.794c-2.633.567-3.95,1.735-4.1,2.167,0,.093,0,.181,0,.273a1.166,1.166,0,0,1,0,.135,25.725,25.725,0,0,0,.215,2.858c.26-.139.492-.249.654-.326a28.585,28.585,0,0,1,5.887-1.876,1.31,1.31,0,0,1,.552,2.562c-3.724.8-5.963,1.887-6.593,2.427a27.506,27.506,0,0,0,.993,3.354L37.389,37.5a1.31,1.31,0,0,1,1.815,0l3.832,3.681L44.794,39.5a26.88,26.88,0,0,0-.609-5.2c-1.62-7.514-5.607-12.127-8.18-11.58-1.333.287-2.436,2.011-2.967,4.644a12.992,12.992,0,0,1,3.209-1.137,1.31,1.31,0,1,1,.553,2.561Z" transform="translate(-0.372 -0.11)" fill="#24c1d8"/>
    <path id="Path_4643" data-name="Path 4643" d="M62.289,22.424a1.474,1.474,0,0,0-.625-.616c-.2.267-.54,1.511.289,4.388l.714.272A5.318,5.318,0,0,0,62.289,22.424Z" transform="translate(-3.998)" fill="#24c1d8"/>
    <path id="Path_4644" data-name="Path 4644" d="M68.815,25.094a5.291,5.291,0,0,0-2.972,2.772l.728.275c2.545-1.605,3.093-2.758,3.121-3.091A1.5,1.5,0,0,0,68.815,25.094Z" transform="translate(-4.556 -0.404)" fill="#24c1d8"/>
  </g>
</svg>
