<svg height="39.26" viewBox="0 0 40.192 39.26" width="40.192" xmlns="http://www.w3.org/2000/svg"><g fill="#24c1d8"><path d="m-899.144 735.708a9.644 9.644 0 0 0 2.034-.223c.276-.063.134-.4-.09-.483a.342.342 0 0 0 -.288-.165l-8.52-.035c-.429 0-1.282.013-1.351-.583a.606.606 0 0 1 .347-.55 1.056 1.056 0 0 1 .383-.126c.04.014.081.027.12.038a4.22 4.22 0 0 0 .839.117c.36.027.721.043 1.083.052.739.019 1.478.014 2.217.015l4.867.009.4.012a.219.219 0 0 0 .208-.269.33.33 0 0 0 -.32-.248l-.195-.006a.337.337 0 0 0 -.058-.006h-.146l-4.21-.124-2.286-.067c-.758-.023-1.521-.071-2.279-.063a2.669 2.669 0 0 0 -.281.018.72.72 0 0 1 -.268-.2.4.4 0 0 1 .054-.513.974.974 0 0 1 .679-.288 13.556 13.556 0 0 0 1.717.106l2.164.056 4.86.125a.219.219 0 0 0 .208-.269.3.3 0 0 0 -.016-.053.235.235 0 0 0 .06-.206.328.328 0 0 0 -.32-.248l-4.493-.021-2.211-.01-1.106-.005c-.306 0-.618-.017-.924.006-.057-.01-.115-.019-.171-.031-.107-.022-.568-.077-.582-.225-.008-.086.111-.178.171-.223a1.3 1.3 0 0 1 .379-.18 5.22 5.22 0 0 1 .875-.213 12.236 12.236 0 0 1 1.818-.107h1.959 4.5a.22.22 0 0 0 .208-.269c0-.006 0-.011-.005-.016a.241.241 0 0 0 .082-.228.33.33 0 0 0 -.32-.248q-4.44-.232-8.881-.463a7.594 7.594 0 0 0 -3.832.506 13.44 13.44 0 0 0 -1.551 1.026 5.4 5.4 0 0 1 -1.73.8 14.973 14.973 0 0 1 -4.011.278c-1.422-.029-2.841-.141-4.256-.29-2.825-.3-5.636-.727-8.47-.938a37.6 37.6 0 0 0 -4.191-.1c-.706.027-1.41.079-2.112.162a1.856 1.856 0 0 0 -1.532.726c-.634 1.073.185 2.227 1.158 2.712a7.589 7.589 0 0 0 3.95.357c2.9-.207 5.779-.552 8.669-.827a71.634 71.634 0 0 1 8.711-.4 7.373 7.373 0 0 1 3.866.767 8.236 8.236 0 0 0 1.613.948 7.1 7.1 0 0 0 2.042.281l4.411.222c1.448.072 2.904.197 4.354.18z" transform="matrix(.74314483 -.66913061 .66913061 .74314483 214.427154 -1135.21702)"/><path d="m-915.4 707.088a28.537 28.537 0 0 1 4.424-.379q2.237-.055 4.473-.14 4.494-.171 8.982-.463 1.106-.072 2.212-.152a.225.225 0 0 0 .113-.394 3.514 3.514 0 0 0 -1.7-.847 9.188 9.188 0 0 0 -2.129-.78c-1.3-.322-2.631-.545-3.95-.776a27.64 27.64 0 0 0 -8.558-.459 4.9 4.9 0 0 0 -1.787.551c-.544.315-.91.848-1.445 1.168a3.577 3.577 0 0 1 -2 .255q-1.126-.043-2.253-.08-4.485-.15-8.973-.217-2.225-.033-4.45-.046-1.127-.007-2.254-.008a4.324 4.324 0 0 0 -1.979.272 1.574 1.574 0 0 0 -.922 1.269 1.568 1.568 0 0 0 .817 1.349 3.538 3.538 0 0 0 1.9.355c.74-.011 1.478-.079 2.215-.141a37.021 37.021 0 0 1 4.326-.1c1.448.047 2.893.149 4.339.224s2.875.124 4.312.07a30.275 30.275 0 0 0 4.287-.531z" transform="matrix(.74314483 -.66913061 .66913061 .74314483 226.681146 -1121.030716)"/></g></svg>