<svg xmlns="http://www.w3.org/2000/svg" width="40.038" height="40.704" viewBox="0 0 40.038 40.704">
  <path id="Path_4514" data-name="Path 4514" d="M-289.721,279.05a33.035,33.035,0,0,0-2.56-2.862,2,2,0,0,1-.592-1.887c.246-.682.742-1.245,1-1.927a8.437,8.437,0,0,0,.255-4.438,7.947,7.947,0,0,0-.577-2.095,2.845,2.845,0,0,0-1.545-1.382c-.73-.307-1.506-.515-2.25-.787q-1.2-.438-2.374-.944a17.439,17.439,0,0,0-4.532-1.6,4.62,4.62,0,0,0-3.846,1.2,7.9,7.9,0,0,0-1.934,3.345c-.044.137-.085.275-.125.413-2.305-1.029-4.879-1.984-7.357-.97-2.256.922-3.17,3.32-3.945,5.439-.063.171-.126.556-.285.67-.081.058-.225,0-.316-.011-.181-.03-.36-.061-.542-.085a10.268,10.268,0,0,0-2.1-.053,10.708,10.708,0,0,0-2.07.358,3.873,3.873,0,0,0-1.719.82c-.947.933-.608,2.3-.26,3.425a30.948,30.948,0,0,0,1.518,3.931q.5,1.079,1.085,2.12a2.5,2.5,0,0,0,1.405,1.365,4.492,4.492,0,0,0,1.152.113q.642.01,1.284,0c.856-.009,2.6-.1,2.613-.1a8.426,8.426,0,0,0,1.167-.01,15.657,15.657,0,0,1-2.616,4.319,24.137,24.137,0,0,1-7.3,6.092c-.637.345-1.52.609-1.907,1.265-.489.83.2,1.689.632,2.378q.74,1.192,1.513,2.365.4.607.807,1.207a3,3,0,0,0,.745.877,1.2,1.2,0,0,0,1.67-.469A32.6,32.6,0,0,1-320.108,299a24.625,24.625,0,0,0,2.345-1.275,53.666,53.666,0,0,1,9.824-4.476c.422-.143.184.745.005,1.621a4.2,4.2,0,0,0,.946,3.633,7.283,7.283,0,0,0,3.341,1.785,4.858,4.858,0,0,0,3.615-.737c.878-.474,1.28-1.929,1.554-2.878a2.59,2.59,0,0,0,3.412-.776,8.2,8.2,0,0,0,1.723-3.962c.029-.206.048-.413.061-.621.8-.122,1.351-.072,1.948-.661.63-.621.8-1.038.722-2.513-.073-1.307.1-2.442-1.482-3.4,1.711.344,1.821-.75,2.451-1.8A3.694,3.694,0,0,0-289.721,279.05Zm-24.5-.892a15.262,15.262,0,0,0,2.009.027c-.274.576-.478,1.183-.726,1.776a4.08,4.08,0,0,1-.963,1.494A24.26,24.26,0,0,0-314.218,278.157Zm-.652,10.8c-.031-.072,1.4-2.937,1.707-3.474.337-.583.753-1.117,1.1-1.7a13.055,13.055,0,0,0,.881-1.784c.525-1.3.274-1.849.607-3.209.01,0,.021,0,.03.01a.914.914,0,0,1,.291.373,7.6,7.6,0,0,1,.634,1.84,5.927,5.927,0,0,0,.724,1.8,3.466,3.466,0,0,0,.458.52.517.517,0,0,0-.088.05c-1.071.768-1.507.745-2.313,1.8a48.075,48.075,0,0,1-3.99,3.905C-314.771,289.111-314.866,288.965-314.87,288.956Zm7.716-1.607c.014.035.029.071.042.106a2.686,2.686,0,0,1,.208.915,3.429,3.429,0,0,1-.263,1.084,3.94,3.94,0,0,0-.137.556.286.286,0,0,0-.059.01q-3.067.909-6.21,1.525a3.719,3.719,0,0,1,1.2-1.415q.569-.463,1.139-.924a6.94,6.94,0,0,1,.975-.714C-309.287,287.954-308.114,287.871-307.154,287.349Z" transform="translate(329.165 -261.078)" fill="#24c1d8"/>
</svg>
