<svg xmlns="http://www.w3.org/2000/svg" width="42" height="36.09" viewBox="0 0 42 36.09">
  <g id="Group_3458" data-name="Group 3458" transform="translate(430.635 -640.27)">
    <path id="Path_4512" data-name="Path 4512" d="M-333.031,651.647a17.813,17.813,0,0,0,.184-1.8c.035-.552.069-1.106.06-1.659a4.406,4.406,0,0,0-.974-2.969,6.184,6.184,0,0,0-2.762-1.55,7.64,7.64,0,0,0-1.79-.418,4.338,4.338,0,0,0-1.78.331c-.62.224-1.235.465-1.852.7a5.246,5.246,0,0,0-1.5.716,1.8,1.8,0,0,0-.29.3,7.233,7.233,0,0,0-4.129-4.633,5.8,5.8,0,0,0-6.151,1.236,6.954,6.954,0,0,0-1.677,3.408,13.27,13.27,0,0,0-.252,3.6,13.038,13.038,0,0,0,2.238,6.626,19.806,19.806,0,0,0,2.671,2.871,8.6,8.6,0,0,1,2.232,2.986,4.275,4.275,0,0,1,.234.863.233.233,0,0,0,.238.211.282.282,0,0,0,.333.047c2.347-1.277,4.747-2.453,7.112-3.7q1.753-.922,3.475-1.9a11.773,11.773,0,0,0,2.987-2.07A6.14,6.14,0,0,0-333.031,651.647Z" transform="translate(-55.849)" fill="#24c1d8"/>
    <path id="Path_4513" data-name="Path 4513" d="M-410.8,716.518a4.443,4.443,0,0,0-1.665-1.954,4.436,4.436,0,0,0-2.949-.511,9.711,9.711,0,0,0-1.6.375,3.972,3.972,0,0,0-1.393.657,4.11,4.11,0,0,0-.9,1.136,9.146,9.146,0,0,0-.7,1.389c-.029.078-.054.156-.078.235a4.574,4.574,0,0,0-1.565-1.81,6.726,6.726,0,0,0-3-1.053c-1.755-.219-4-.109-5.176,1.42a4.607,4.607,0,0,0-.794,3.155,4.7,4.7,0,0,0,1.175,2.557c1.367,1.587,3.348,2.355,4.982,3.606a13.208,13.208,0,0,1,3.582,4.956q.168.346.333.694a.225.225,0,0,0,.367.072l.257-.229a.31.31,0,0,0,.1-.3c.2-.348.41-.7.634-1.031a2.7,2.7,0,0,1,1.1-.939,10.964,10.964,0,0,0,1.361-.754,11.187,11.187,0,0,0,1.242-1.023,19.824,19.824,0,0,0,4.151-4.909A6.494,6.494,0,0,0-410.8,716.518Z" transform="translate(0 -55.148)" fill="#24c1d8"/>
  </g>
</svg>
