<svg xmlns="http://www.w3.org/2000/svg" width="2369" height="17" viewBox="0 0 2369 17">
  <g id="Group_3911" data-name="Group 3911" transform="translate(17818 6373)">
    <g id="Group_3909" data-name="Group 3909" transform="translate(-17818 -6373)">
      <g id="Group_3907" data-name="Group 3907">
        <g id="Group_3907-2" data-name="Group 3907" transform="translate(0 0)">
          <path id="Path_4639" data-name="Path 4639" d="M764.557-254.371a6.951,6.951,0,0,0-5.162,2.514c-1.311,1.378-2.665,2.8-5.389,2.8s-4.077-1.426-5.386-2.8c-1.233-1.3-2.4-2.523-4.735-2.523s-3.5,1.226-4.734,2.523c-1.31,1.378-2.664,2.8-5.387,2.8s-4.076-1.426-5.386-2.8c-1.233-1.3-2.4-2.523-4.735-2.523s-3.5,1.226-4.735,2.523c-1.31,1.378-2.665,2.8-5.388,2.8s-4.078-1.426-5.388-2.8c-1.233-1.3-2.4-2.523-4.736-2.523s-3.5,1.226-4.735,2.523c-1.31,1.378-2.665,2.8-5.389,2.8s-4.078-1.426-5.387-2.8c-1.233-1.3-2.4-2.523-4.735-2.523s-3.5,1.226-4.735,2.523c-1.309,1.378-2.663,2.8-5.387,2.8s-4.077-1.426-5.387-2.8c-1.233-1.3-2.4-2.523-4.735-2.523s-3.5,1.226-4.736,2.523c-1.309,1.378-2.664,2.8-5.387,2.8s-4.08-1.426-5.39-2.8c-1.232-1.3-2.4-2.523-4.736-2.523s-3.5,1.226-4.735,2.523c-1.309,1.378-2.664,2.8-5.387,2.8s-4.077-1.426-5.387-2.8c-1.232-1.3-2.4-2.523-4.735-2.523s-3.5,1.226-4.735,2.523c-1.311,1.378-2.665,2.8-5.388,2.8s-4.079-1.426-5.39-2.8c-1.233-1.3-2.4-2.523-4.736-2.523s-3.5,1.226-4.735,2.523c-1.311,1.378-2.665,2.8-5.389,2.8s-4.078-1.426-5.387-2.8c-1.233-1.3-2.4-2.523-4.735-2.523s-3.5,1.226-4.735,2.523c-1.31,1.378-2.665,2.8-5.388,2.8s-4.079-1.426-5.389-2.8c-1.234-1.3-2.4-2.523-4.738-2.523s-3.5,1.226-4.736,2.523c-1.31,1.378-2.664,2.8-5.388,2.8s-4.079-1.426-5.388-2.8c-1.232-1.3-2.4-2.523-4.736-2.523s-3.5,1.226-4.736,2.523c-1.31,1.378-2.664,2.8-5.388,2.8s-4.079-1.426-5.39-2.8c-1.232-1.3-2.4-2.523-4.736-2.523s-3.5,1.226-4.735,2.523c-1.31,1.378-2.665,2.8-5.388,2.8s-4.078-1.426-5.389-2.8c-1.232-1.3-2.4-2.523-4.736-2.523s-3.5,1.226-4.736,2.523c-1.311,1.378-2.666,2.8-5.39,2.8s-4.078-1.426-5.388-2.8c-1.233-1.3-2.4-2.523-4.736-2.523s-3.505,1.226-4.737,2.523c-1.31,1.378-2.666,2.8-5.39,2.8s-4.078-1.426-5.388-2.8c-1.233-1.3-2.4-2.523-4.736-2.523s-3.5,1.226-4.737,2.523c-1.31,1.378-2.665,2.8-5.388,2.8s-4.079-1.426-5.39-2.8c-1.233-1.3-2.4-2.523-4.737-2.523s-3.5,1.226-4.736,2.523c-1.311,1.378-2.666,2.8-5.389,2.8s-4.08-1.426-5.391-2.8c-1.233-1.3-2.4-2.523-4.737-2.523s-3.5,1.226-4.736,2.523c-1.31,1.378-2.666,2.8-5.389,2.8s-4.08-1.426-5.39-2.8c-1.234-1.3-2.4-2.523-4.738-2.523s-3.5,1.226-4.737,2.523c-1.31,1.378-2.665,2.8-5.388,2.8s-4.08-1.426-5.39-2.8c-1.233-1.3-2.4-2.523-4.738-2.523s-3.5,1.226-4.736,2.523c-1.311,1.378-2.666,2.8-5.39,2.8s-4.079-1.426-5.39-2.8c-1.233-1.3-2.4-2.523-4.736-2.523s-3.5,1.226-4.738,2.523c-1.31,1.378-2.666,2.8-5.39,2.8s-4.08-1.426-5.39-2.8c-1.234-1.3-2.4-2.523-4.738-2.523s-3.5,1.226-4.738,2.523c-1.31,1.378-2.665,2.8-5.389,2.8s-4.078-1.426-5.388-2.8c-1.232-1.3-2.4-2.523-4.735-2.523s-3.5,1.226-4.736,2.523c-1.31,1.378-2.665,2.8-5.388,2.8s-4.078-1.426-5.389-2.8c-1.232-1.3-2.4-2.523-4.735-2.523s-3.5,1.226-4.737,2.523c-1.311,1.378-2.666,2.8-5.39,2.8s-4.078-1.426-5.388-2.8c-1.233-1.3-2.4-2.523-4.736-2.523s-3.5,1.226-4.737,2.523c-1.31,1.378-2.666,2.8-5.391,2.8s-4.08-1.426-5.39-2.8c-1.233-1.3-2.4-2.523-4.738-2.523s-3.5,1.226-4.738,2.523c-1.31,1.378-2.665,2.8-5.389,2.8s-4.08-1.426-5.391-2.8c-1.233-1.3-2.4-2.523-4.737-2.523s-3.505,1.226-4.738,2.523c-1.311,1.378-2.667,2.8-5.391,2.8s-4.08-1.425-5.391-2.8c-1.234-1.3-2.4-2.523-4.74-2.523s-3.5,1.226-4.738,2.523c-1.311,1.378-2.666,2.8-5.39,2.8s-4.081-1.426-5.392-2.8c-1.233-1.3-2.4-2.523-4.738-2.523s-3.5,1.226-4.737,2.523c-1.311,1.378-2.666,2.8-5.39,2.8s-4.08-1.426-5.39-2.8c-1.233-1.3-2.4-2.523-4.737-2.523s-3.505,1.226-4.738,2.523c-1.311,1.378-2.667,2.8-5.392,2.8s-4.082-1.426-5.393-2.8a6.61,6.61,0,0,0-3.79-2.441v16.918h607C764.551-237.4,764.54-254.349,764.557-254.371Z" transform="translate(-157.557 254.38)" fill="#24c1d8"/>
        </g>
      </g>
      <g id="Group_3908" data-name="Group 3908" transform="translate(587.4)">
        <g id="Group_3907-3" data-name="Group 3907" transform="translate(0 0)">
          <path id="Path_4639-2" data-name="Path 4639" d="M764.557-254.371a6.951,6.951,0,0,0-5.162,2.514c-1.311,1.378-2.665,2.8-5.389,2.8s-4.077-1.426-5.386-2.8c-1.233-1.3-2.4-2.523-4.735-2.523s-3.5,1.226-4.734,2.523c-1.31,1.378-2.664,2.8-5.387,2.8s-4.076-1.426-5.386-2.8c-1.233-1.3-2.4-2.523-4.735-2.523s-3.5,1.226-4.735,2.523c-1.31,1.378-2.665,2.8-5.388,2.8s-4.078-1.426-5.388-2.8c-1.233-1.3-2.4-2.523-4.736-2.523s-3.5,1.226-4.735,2.523c-1.31,1.378-2.665,2.8-5.389,2.8s-4.078-1.426-5.387-2.8c-1.233-1.3-2.4-2.523-4.735-2.523s-3.5,1.226-4.735,2.523c-1.309,1.378-2.663,2.8-5.387,2.8s-4.077-1.426-5.387-2.8c-1.233-1.3-2.4-2.523-4.735-2.523s-3.5,1.226-4.736,2.523c-1.309,1.378-2.664,2.8-5.387,2.8s-4.08-1.426-5.39-2.8c-1.232-1.3-2.4-2.523-4.736-2.523s-3.5,1.226-4.735,2.523c-1.309,1.378-2.664,2.8-5.387,2.8s-4.077-1.426-5.387-2.8c-1.232-1.3-2.4-2.523-4.735-2.523s-3.5,1.226-4.735,2.523c-1.311,1.378-2.665,2.8-5.388,2.8s-4.079-1.426-5.39-2.8c-1.233-1.3-2.4-2.523-4.736-2.523s-3.5,1.226-4.735,2.523c-1.311,1.378-2.665,2.8-5.389,2.8s-4.078-1.426-5.387-2.8c-1.233-1.3-2.4-2.523-4.735-2.523s-3.5,1.226-4.735,2.523c-1.31,1.378-2.665,2.8-5.388,2.8s-4.079-1.426-5.389-2.8c-1.234-1.3-2.4-2.523-4.738-2.523s-3.5,1.226-4.736,2.523c-1.31,1.378-2.664,2.8-5.388,2.8s-4.079-1.426-5.388-2.8c-1.232-1.3-2.4-2.523-4.736-2.523s-3.5,1.226-4.736,2.523c-1.31,1.378-2.664,2.8-5.388,2.8s-4.079-1.426-5.39-2.8c-1.232-1.3-2.4-2.523-4.736-2.523s-3.5,1.226-4.735,2.523c-1.31,1.378-2.665,2.8-5.388,2.8s-4.078-1.426-5.389-2.8c-1.232-1.3-2.4-2.523-4.736-2.523s-3.5,1.226-4.736,2.523c-1.311,1.378-2.666,2.8-5.39,2.8s-4.078-1.426-5.388-2.8c-1.233-1.3-2.4-2.523-4.736-2.523s-3.505,1.226-4.737,2.523c-1.31,1.378-2.666,2.8-5.39,2.8s-4.078-1.426-5.388-2.8c-1.233-1.3-2.4-2.523-4.736-2.523s-3.5,1.226-4.737,2.523c-1.31,1.378-2.665,2.8-5.388,2.8s-4.079-1.426-5.39-2.8c-1.233-1.3-2.4-2.523-4.737-2.523s-3.5,1.226-4.736,2.523c-1.311,1.378-2.666,2.8-5.389,2.8s-4.08-1.426-5.391-2.8c-1.233-1.3-2.4-2.523-4.737-2.523s-3.5,1.226-4.736,2.523c-1.31,1.378-2.666,2.8-5.389,2.8s-4.08-1.426-5.39-2.8c-1.234-1.3-2.4-2.523-4.738-2.523s-3.5,1.226-4.737,2.523c-1.31,1.378-2.665,2.8-5.388,2.8s-4.08-1.426-5.39-2.8c-1.233-1.3-2.4-2.523-4.738-2.523s-3.5,1.226-4.736,2.523c-1.311,1.378-2.666,2.8-5.39,2.8s-4.079-1.426-5.39-2.8c-1.233-1.3-2.4-2.523-4.736-2.523s-3.5,1.226-4.738,2.523c-1.31,1.378-2.666,2.8-5.39,2.8s-4.08-1.426-5.39-2.8c-1.234-1.3-2.4-2.523-4.738-2.523s-3.5,1.226-4.738,2.523c-1.31,1.378-2.665,2.8-5.389,2.8s-4.078-1.426-5.388-2.8c-1.232-1.3-2.4-2.523-4.735-2.523s-3.5,1.226-4.736,2.523c-1.31,1.378-2.665,2.8-5.388,2.8s-4.078-1.426-5.389-2.8c-1.232-1.3-2.4-2.523-4.735-2.523s-3.5,1.226-4.737,2.523c-1.311,1.378-2.666,2.8-5.39,2.8s-4.078-1.426-5.388-2.8c-1.233-1.3-2.4-2.523-4.736-2.523s-3.5,1.226-4.737,2.523c-1.31,1.378-2.666,2.8-5.391,2.8s-4.08-1.426-5.39-2.8c-1.233-1.3-2.4-2.523-4.738-2.523s-3.5,1.226-4.738,2.523c-1.31,1.378-2.665,2.8-5.389,2.8s-4.08-1.426-5.391-2.8c-1.233-1.3-2.4-2.523-4.737-2.523s-3.505,1.226-4.738,2.523c-1.311,1.378-2.667,2.8-5.391,2.8s-4.08-1.425-5.391-2.8c-1.234-1.3-2.4-2.523-4.74-2.523s-3.5,1.226-4.738,2.523c-1.311,1.378-2.666,2.8-5.39,2.8s-4.081-1.426-5.392-2.8c-1.233-1.3-2.4-2.523-4.738-2.523s-3.5,1.226-4.737,2.523c-1.311,1.378-2.666,2.8-5.39,2.8s-4.08-1.426-5.39-2.8c-1.233-1.3-2.4-2.523-4.737-2.523s-3.505,1.226-4.738,2.523c-1.311,1.378-2.667,2.8-5.392,2.8s-4.082-1.426-5.393-2.8a6.61,6.61,0,0,0-3.79-2.441v16.918h607C764.551-237.4,764.54-254.349,764.557-254.371Z" transform="translate(-157.557 254.38)" fill="#24c1d8"/>
        </g>
      </g>
    </g>
    <g id="Group_3910" data-name="Group 3910" transform="translate(-16643.4 -6373)">
      <g id="Group_3907-4" data-name="Group 3907">
        <g id="Group_3907-5" data-name="Group 3907" transform="translate(0 0)">
          <path id="Path_4639-3" data-name="Path 4639" d="M764.557-254.371a6.951,6.951,0,0,0-5.162,2.514c-1.311,1.378-2.665,2.8-5.389,2.8s-4.077-1.426-5.386-2.8c-1.233-1.3-2.4-2.523-4.735-2.523s-3.5,1.226-4.734,2.523c-1.31,1.378-2.664,2.8-5.387,2.8s-4.076-1.426-5.386-2.8c-1.233-1.3-2.4-2.523-4.735-2.523s-3.5,1.226-4.735,2.523c-1.31,1.378-2.665,2.8-5.388,2.8s-4.078-1.426-5.388-2.8c-1.233-1.3-2.4-2.523-4.736-2.523s-3.5,1.226-4.735,2.523c-1.31,1.378-2.665,2.8-5.389,2.8s-4.078-1.426-5.387-2.8c-1.233-1.3-2.4-2.523-4.735-2.523s-3.5,1.226-4.735,2.523c-1.309,1.378-2.663,2.8-5.387,2.8s-4.077-1.426-5.387-2.8c-1.233-1.3-2.4-2.523-4.735-2.523s-3.5,1.226-4.736,2.523c-1.309,1.378-2.664,2.8-5.387,2.8s-4.08-1.426-5.39-2.8c-1.232-1.3-2.4-2.523-4.736-2.523s-3.5,1.226-4.735,2.523c-1.309,1.378-2.664,2.8-5.387,2.8s-4.077-1.426-5.387-2.8c-1.232-1.3-2.4-2.523-4.735-2.523s-3.5,1.226-4.735,2.523c-1.311,1.378-2.665,2.8-5.388,2.8s-4.079-1.426-5.39-2.8c-1.233-1.3-2.4-2.523-4.736-2.523s-3.5,1.226-4.735,2.523c-1.311,1.378-2.665,2.8-5.389,2.8s-4.078-1.426-5.387-2.8c-1.233-1.3-2.4-2.523-4.735-2.523s-3.5,1.226-4.735,2.523c-1.31,1.378-2.665,2.8-5.388,2.8s-4.079-1.426-5.389-2.8c-1.234-1.3-2.4-2.523-4.738-2.523s-3.5,1.226-4.736,2.523c-1.31,1.378-2.664,2.8-5.388,2.8s-4.079-1.426-5.388-2.8c-1.232-1.3-2.4-2.523-4.736-2.523s-3.5,1.226-4.736,2.523c-1.31,1.378-2.664,2.8-5.388,2.8s-4.079-1.426-5.39-2.8c-1.232-1.3-2.4-2.523-4.736-2.523s-3.5,1.226-4.735,2.523c-1.31,1.378-2.665,2.8-5.388,2.8s-4.078-1.426-5.389-2.8c-1.232-1.3-2.4-2.523-4.736-2.523s-3.5,1.226-4.736,2.523c-1.311,1.378-2.666,2.8-5.39,2.8s-4.078-1.426-5.388-2.8c-1.233-1.3-2.4-2.523-4.736-2.523s-3.505,1.226-4.737,2.523c-1.31,1.378-2.666,2.8-5.39,2.8s-4.078-1.426-5.388-2.8c-1.233-1.3-2.4-2.523-4.736-2.523s-3.5,1.226-4.737,2.523c-1.31,1.378-2.665,2.8-5.388,2.8s-4.079-1.426-5.39-2.8c-1.233-1.3-2.4-2.523-4.737-2.523s-3.5,1.226-4.736,2.523c-1.311,1.378-2.666,2.8-5.389,2.8s-4.08-1.426-5.391-2.8c-1.233-1.3-2.4-2.523-4.737-2.523s-3.5,1.226-4.736,2.523c-1.31,1.378-2.666,2.8-5.389,2.8s-4.08-1.426-5.39-2.8c-1.234-1.3-2.4-2.523-4.738-2.523s-3.5,1.226-4.737,2.523c-1.31,1.378-2.665,2.8-5.388,2.8s-4.08-1.426-5.39-2.8c-1.233-1.3-2.4-2.523-4.738-2.523s-3.5,1.226-4.736,2.523c-1.311,1.378-2.666,2.8-5.39,2.8s-4.079-1.426-5.39-2.8c-1.233-1.3-2.4-2.523-4.736-2.523s-3.5,1.226-4.738,2.523c-1.31,1.378-2.666,2.8-5.39,2.8s-4.08-1.426-5.39-2.8c-1.234-1.3-2.4-2.523-4.738-2.523s-3.5,1.226-4.738,2.523c-1.31,1.378-2.665,2.8-5.389,2.8s-4.078-1.426-5.388-2.8c-1.232-1.3-2.4-2.523-4.735-2.523s-3.5,1.226-4.736,2.523c-1.31,1.378-2.665,2.8-5.388,2.8s-4.078-1.426-5.389-2.8c-1.232-1.3-2.4-2.523-4.735-2.523s-3.5,1.226-4.737,2.523c-1.311,1.378-2.666,2.8-5.39,2.8s-4.078-1.426-5.388-2.8c-1.233-1.3-2.4-2.523-4.736-2.523s-3.5,1.226-4.737,2.523c-1.31,1.378-2.666,2.8-5.391,2.8s-4.08-1.426-5.39-2.8c-1.233-1.3-2.4-2.523-4.738-2.523s-3.5,1.226-4.738,2.523c-1.31,1.378-2.665,2.8-5.389,2.8s-4.08-1.426-5.391-2.8c-1.233-1.3-2.4-2.523-4.737-2.523s-3.505,1.226-4.738,2.523c-1.311,1.378-2.667,2.8-5.391,2.8s-4.08-1.425-5.391-2.8c-1.234-1.3-2.4-2.523-4.74-2.523s-3.5,1.226-4.738,2.523c-1.311,1.378-2.666,2.8-5.39,2.8s-4.081-1.426-5.392-2.8c-1.233-1.3-2.4-2.523-4.738-2.523s-3.5,1.226-4.737,2.523c-1.311,1.378-2.666,2.8-5.39,2.8s-4.08-1.426-5.39-2.8c-1.233-1.3-2.4-2.523-4.737-2.523s-3.505,1.226-4.738,2.523c-1.311,1.378-2.667,2.8-5.392,2.8s-4.082-1.426-5.393-2.8a6.61,6.61,0,0,0-3.79-2.441v16.918h607C764.551-237.4,764.54-254.349,764.557-254.371Z" transform="translate(-157.557 254.38)" fill="#24c1d8"/>
        </g>
      </g>
      <g id="Group_3908-2" data-name="Group 3908" transform="translate(587.4)">
        <g id="Group_3907-6" data-name="Group 3907" transform="translate(0 0)">
          <path id="Path_4639-4" data-name="Path 4639" d="M764.557-254.371a6.951,6.951,0,0,0-5.162,2.514c-1.311,1.378-2.665,2.8-5.389,2.8s-4.077-1.426-5.386-2.8c-1.233-1.3-2.4-2.523-4.735-2.523s-3.5,1.226-4.734,2.523c-1.31,1.378-2.664,2.8-5.387,2.8s-4.076-1.426-5.386-2.8c-1.233-1.3-2.4-2.523-4.735-2.523s-3.5,1.226-4.735,2.523c-1.31,1.378-2.665,2.8-5.388,2.8s-4.078-1.426-5.388-2.8c-1.233-1.3-2.4-2.523-4.736-2.523s-3.5,1.226-4.735,2.523c-1.31,1.378-2.665,2.8-5.389,2.8s-4.078-1.426-5.387-2.8c-1.233-1.3-2.4-2.523-4.735-2.523s-3.5,1.226-4.735,2.523c-1.309,1.378-2.663,2.8-5.387,2.8s-4.077-1.426-5.387-2.8c-1.233-1.3-2.4-2.523-4.735-2.523s-3.5,1.226-4.736,2.523c-1.309,1.378-2.664,2.8-5.387,2.8s-4.08-1.426-5.39-2.8c-1.232-1.3-2.4-2.523-4.736-2.523s-3.5,1.226-4.735,2.523c-1.309,1.378-2.664,2.8-5.387,2.8s-4.077-1.426-5.387-2.8c-1.232-1.3-2.4-2.523-4.735-2.523s-3.5,1.226-4.735,2.523c-1.311,1.378-2.665,2.8-5.388,2.8s-4.079-1.426-5.39-2.8c-1.233-1.3-2.4-2.523-4.736-2.523s-3.5,1.226-4.735,2.523c-1.311,1.378-2.665,2.8-5.389,2.8s-4.078-1.426-5.387-2.8c-1.233-1.3-2.4-2.523-4.735-2.523s-3.5,1.226-4.735,2.523c-1.31,1.378-2.665,2.8-5.388,2.8s-4.079-1.426-5.389-2.8c-1.234-1.3-2.4-2.523-4.738-2.523s-3.5,1.226-4.736,2.523c-1.31,1.378-2.664,2.8-5.388,2.8s-4.079-1.426-5.388-2.8c-1.232-1.3-2.4-2.523-4.736-2.523s-3.5,1.226-4.736,2.523c-1.31,1.378-2.664,2.8-5.388,2.8s-4.079-1.426-5.39-2.8c-1.232-1.3-2.4-2.523-4.736-2.523s-3.5,1.226-4.735,2.523c-1.31,1.378-2.665,2.8-5.388,2.8s-4.078-1.426-5.389-2.8c-1.232-1.3-2.4-2.523-4.736-2.523s-3.5,1.226-4.736,2.523c-1.311,1.378-2.666,2.8-5.39,2.8s-4.078-1.426-5.388-2.8c-1.233-1.3-2.4-2.523-4.736-2.523s-3.505,1.226-4.737,2.523c-1.31,1.378-2.666,2.8-5.39,2.8s-4.078-1.426-5.388-2.8c-1.233-1.3-2.4-2.523-4.736-2.523s-3.5,1.226-4.737,2.523c-1.31,1.378-2.665,2.8-5.388,2.8s-4.079-1.426-5.39-2.8c-1.233-1.3-2.4-2.523-4.737-2.523s-3.5,1.226-4.736,2.523c-1.311,1.378-2.666,2.8-5.389,2.8s-4.08-1.426-5.391-2.8c-1.233-1.3-2.4-2.523-4.737-2.523s-3.5,1.226-4.736,2.523c-1.31,1.378-2.666,2.8-5.389,2.8s-4.08-1.426-5.39-2.8c-1.234-1.3-2.4-2.523-4.738-2.523s-3.5,1.226-4.737,2.523c-1.31,1.378-2.665,2.8-5.388,2.8s-4.08-1.426-5.39-2.8c-1.233-1.3-2.4-2.523-4.738-2.523s-3.5,1.226-4.736,2.523c-1.311,1.378-2.666,2.8-5.39,2.8s-4.079-1.426-5.39-2.8c-1.233-1.3-2.4-2.523-4.736-2.523s-3.5,1.226-4.738,2.523c-1.31,1.378-2.666,2.8-5.39,2.8s-4.08-1.426-5.39-2.8c-1.234-1.3-2.4-2.523-4.738-2.523s-3.5,1.226-4.738,2.523c-1.31,1.378-2.665,2.8-5.389,2.8s-4.078-1.426-5.388-2.8c-1.232-1.3-2.4-2.523-4.735-2.523s-3.5,1.226-4.736,2.523c-1.31,1.378-2.665,2.8-5.388,2.8s-4.078-1.426-5.389-2.8c-1.232-1.3-2.4-2.523-4.735-2.523s-3.5,1.226-4.737,2.523c-1.311,1.378-2.666,2.8-5.39,2.8s-4.078-1.426-5.388-2.8c-1.233-1.3-2.4-2.523-4.736-2.523s-3.5,1.226-4.737,2.523c-1.31,1.378-2.666,2.8-5.391,2.8s-4.08-1.426-5.39-2.8c-1.233-1.3-2.4-2.523-4.738-2.523s-3.5,1.226-4.738,2.523c-1.31,1.378-2.665,2.8-5.389,2.8s-4.08-1.426-5.391-2.8c-1.233-1.3-2.4-2.523-4.737-2.523s-3.505,1.226-4.738,2.523c-1.311,1.378-2.667,2.8-5.391,2.8s-4.08-1.425-5.391-2.8c-1.234-1.3-2.4-2.523-4.74-2.523s-3.5,1.226-4.738,2.523c-1.311,1.378-2.666,2.8-5.39,2.8s-4.081-1.426-5.392-2.8c-1.233-1.3-2.4-2.523-4.738-2.523s-3.5,1.226-4.737,2.523c-1.311,1.378-2.666,2.8-5.39,2.8s-4.08-1.426-5.39-2.8c-1.233-1.3-2.4-2.523-4.737-2.523s-3.505,1.226-4.738,2.523c-1.311,1.378-2.667,2.8-5.392,2.8s-4.082-1.426-5.393-2.8a6.61,6.61,0,0,0-3.79-2.441v16.918h607C764.551-237.4,764.54-254.349,764.557-254.371Z" transform="translate(-157.557 254.38)" fill="#24c1d8"/>
        </g>
      </g>
    </g>
  </g>
</svg>
