<svg xmlns="http://www.w3.org/2000/svg" width="38.692" height="4.98" viewBox="0 0 38.692 4.98">
  <g id="Group_3335" data-name="Group 3335" transform="translate(-3.616)">
    <path id="Path_4325" data-name="Path 4325" d="M120.254,117.51a7.254,7.254,0,0,1-4.069-1.155,6.143,6.143,0,0,0-6.5,0,7.741,7.741,0,0,1-8.137,0,6.126,6.126,0,0,0-6.488,0,7.73,7.73,0,0,1-8.13,0,5.607,5.607,0,0,0-3.245-.929c-.587,0-1.063-.649-1.063-1.448s.476-1.448,1.063-1.448a7.259,7.259,0,0,1,4.067,1.154,6.121,6.121,0,0,0,6.487,0,7.736,7.736,0,0,1,8.131,0,6.13,6.13,0,0,0,6.494,0,7.754,7.754,0,0,1,8.139,0,5.607,5.607,0,0,0,3.248.931c.588,0,1.063.647,1.063,1.448S120.842,117.51,120.254,117.51Z" transform="translate(-79.009 -112.53)" fill="#ffc709"/>
  </g>
</svg>
